<?xml version="1.0" encoding="UTF-8"?>
<svg version="1.1" xmlns="http://www.w3.org/2000/svg" width="2048" height="2048">
<path d="M0 0 C2.46578844 3.8748104 2.16559267 7.52835132 1.5390625 11.9140625 C0.75963312 14.9301153 -0.46226646 16.23768504 -3 18 C-7.19117605 20.08056589 -10.72378171 20.26886904 -15.375 20.25 C-16.64085937 20.25515625 -17.90671875 20.2603125 -19.2109375 20.265625 C-23.16175403 19.98866054 -26.25542798 19.21916298 -30 18 C-39.98868402 28.93324043 -46.14051772 41.51984921 -52 55 C-51.0934668 54.98428955 -50.18693359 54.9685791 -49.25292969 54.95239258 C-45.83099439 54.90071028 -42.40948459 54.86338508 -38.98730469 54.83520508 C-37.51718527 54.82028571 -36.047109 54.79994273 -34.57714844 54.77368164 C-12.55295271 54.39058683 -12.55295271 54.39058683 -5.69921875 59.82397461 C-2.75074445 63.59980096 -3.53924154 67.41658101 -4 72 C-4.58189855 75.75256903 -5.38342625 79.42881049 -6.25 83.125 C-6.47453857 84.11894775 -6.69907715 85.11289551 -6.93041992 86.13696289 C-8.82608711 94.45605378 -10.85456977 102.74189144 -13 111 C-12.50693359 110.32517578 -12.50693359 110.32517578 -12.00390625 109.63671875 C14.63999917 73.60607158 50.35412042 58.92168874 93.79296875 52.21484375 C97.51926748 51.69715627 101.25176007 51.3246507 105 51 C106.13566406 50.89042969 107.27132812 50.78085937 108.44140625 50.66796875 C130.47384813 48.78806757 152.62764541 50.10883412 174.3125 54.375 C175.31933838 54.57182373 176.32617676 54.76864746 177.36352539 54.97143555 C194.57151016 58.57151016 194.57151016 58.57151016 198 62 C198.44036164 66.84397801 198.12703765 70.13486723 196.171875 74.59375 C193.93419004 79.97918794 192.39540092 85.42344927 190.9375 91.0625 C189.37907467 97.01923979 187.74035972 102.88875036 185.74780273 108.71508789 C184.34851838 112.99060284 183.2237415 117.34256587 182.0625 121.6875 C181.53533564 123.62504882 181.00799178 125.56254881 180.48046875 127.5 C179.58482038 130.80700937 178.70941841 134.11750678 177.86328125 137.4375 C177.53714844 138.675 177.21101563 139.9125 176.875 141.1875 C176.60429688 142.25355469 176.33359375 143.31960938 176.0546875 144.41796875 C174.78081056 147.53660823 174.04561369 148.54709249 171 150 C163.60939254 150.85114179 156.90309824 148.60909351 149.8125 146.6875 C133.24009839 142.40967772 117.57340203 139.78946373 100.4375 139.625 C99.37901855 139.61090088 98.32053711 139.59680176 97.22998047 139.58227539 C86.90971917 139.64630088 76.11836861 141.11703531 68 148 C64.17937811 152.42387798 62.32601569 157.18924973 62 163 C62.63182327 167.90878082 64.34857233 171.81245458 67.875 175.3125 C80.74051712 184.88254654 101.87898294 184.92513259 117.17578125 186.96484375 C143.62853797 190.51253254 174.01278444 195.38567636 192.16015625 217.29296875 C196.14658888 223.15835689 199.11823907 229.53674264 202 236 C202.42410156 236.9384375 202.84820313 237.876875 203.28515625 238.84375 C213.06483958 262.9396998 211.58710837 293.19841688 201.8515625 316.94921875 C196.43197625 329.29117619 188.45312402 339.51093255 179 349 C180.91727398 350.91727398 183.80815474 350.56489699 186.38574219 350.89916992 C206.85784939 353.58235289 226.50046224 359.7807404 242 374 C242.74378906 374.65226562 243.48757813 375.30453125 244.25390625 375.9765625 C258.92127568 389.59808472 266.63012128 407.77880189 271 427 C271.17273437 427.71881348 271.34546875 428.43762695 271.5234375 429.17822266 C277.45498825 454.25299382 277.06653079 480.44993865 277.55508423 506.07693481 C278.28322517 569.79793485 278.28322517 569.79793485 291.56640625 631.73632812 C291.9696814 632.93811707 291.9696814 632.93811707 292.38110352 634.16418457 C292.68745728 635.07291321 292.68745728 635.07291321 293 636 C293.2373253 555.07314766 292.84564172 473.2265271 279.890625 393.125 C279.70177734 391.94164062 279.51292969 390.75828125 279.31835938 389.5390625 C278.94923467 387.24059526 278.5708533 384.94358852 278.18164062 382.6484375 C276.39537896 371.61604742 276.39537896 371.61604742 278 368 C283.33488145 363.82499079 290.39733479 362.74086301 296.875 361.4375 C297.8844165 361.22697998 298.89383301 361.01645996 299.93383789 360.79956055 C308.91769238 358.95400982 317.92626372 357.33324002 327 356 C327.66515625 355.90090332 328.3303125 355.80180664 329.015625 355.69970703 C333.66617525 355.02112034 338.32336176 354.46037802 343 354 C343.81807129 353.91943359 344.63614258 353.83886719 345.47900391 353.75585938 C348.06789181 353.51692993 350.65710352 353.31509143 353.25 353.125 C354.06073975 353.0513623 354.87147949 352.97772461 355.70678711 352.90185547 C361.41947251 352.54545446 361.41947251 352.54545446 364.12133789 354.66098022 C366.24654248 357.3069566 367.07373851 359.4208304 368.04296875 362.66650391 C368.56298462 364.3743959 368.56298462 364.3743959 369.09350586 366.11679077 C369.45452393 367.34926544 369.81554199 368.58174011 370.1875 369.8515625 C370.57907387 371.15434902 370.97175482 372.45680323 371.36547852 373.75894165 C372.39098851 377.162821 373.40070885 380.57115386 374.4050293 383.9813385 C375.34321275 387.16447811 376.28943077 390.34522915 377.234375 393.52636719 C378.34265358 397.26390007 379.44957399 401.00182046 380.55374146 404.74057007 C387.54200787 428.39660376 394.68703658 451.93555126 403.125 475.125 C403.62797607 476.51316925 403.62797607 476.51316925 404.14111328 477.92938232 C408.9593361 491.16133444 414.34783808 504.1049283 420 517 C420.61609005 518.41699527 421.23183526 519.83414054 421.84716797 521.25146484 C423.23359394 524.43686258 424.63876336 527.6134236 426.05615234 530.78515625 C426.60279232 532.01338489 427.14510494 533.24354848 427.68310547 534.47558594 C432.63450984 545.80582657 438.65956236 556.3926116 445 567 C444.91697632 565.27559692 444.91697632 565.27559692 444.83227539 563.51635742 C444.18565952 550.0124517 443.57630968 536.5070892 443 523 C442.94975677 521.83259277 442.94975677 521.83259277 442.89849854 520.64160156 C441.24459726 481.80530387 440.7488203 442.45162202 442.8125 403.625 C442.84743561 402.92111145 442.88237122 402.2172229 442.91836548 401.49200439 C443.31379125 393.88706882 444.13105438 386.40448071 445.38671875 378.8984375 C445.49989944 378.19796295 445.61308014 377.4974884 445.72969055 376.77578735 C446.51326931 372.41253979 447.70840725 368.800398 450 365 C454.8129757 361.79134954 459.46377295 363.03906473 465 364 C468.021389 364.88422571 470.98373033 365.86390666 473.94726562 366.92456055 C478.9874858 368.71732692 484.0599889 370.08704549 489.25 371.375 C521.56566757 379.56566757 521.56566757 379.56566757 530 388 C530.84618495 394.97995636 529.62677556 402.2082024 528.6875 409.125 C528.41003653 411.25519274 528.13269621 413.38540153 527.85546875 415.515625 C527.71286621 416.59392578 527.57026367 417.67222656 527.42333984 418.78320312 C523.95826682 445.11296214 520.83145681 471.449281 518.875 497.9375 C518.78939819 499.08298309 518.70379639 500.22846619 518.61560059 501.40866089 C517.21854552 520.2569846 516.22531859 539.05292839 516.02539062 557.95123291 C515.99957093 560.03462193 515.96231407 562.11752995 515.921875 564.20068359 C515.56424869 583.10369174 516.15052053 601.87912763 517.3125 620.75 C517.37135376 621.74519653 517.43020752 622.74039307 517.49084473 623.76574707 C518.14082294 634.51778554 519.08411258 644.98538235 521.32373047 655.53149414 C524.34660308 671.03544764 524.34660308 671.03544764 521 678 C515.68571169 678.99028701 510.65104123 679.00882366 505.25415039 678.88452148 C490.96590083 678.57425033 476.66436407 679.44521198 463 684 C460.94921875 684.23828125 460.94921875 684.23828125 458.6875 684.3125 C457.57955078 684.36857422 457.57955078 684.36857422 456.44921875 684.42578125 C451.02311008 683.48248644 447.45062961 679.75043087 444.35896301 675.39909363 C443.96593491 674.82008804 443.5729068 674.24108246 443.16796875 673.64453125 C442.7409819 673.03051956 442.31399506 672.41650787 441.87406921 671.78388977 C437.39291792 665.2617811 433.32590983 658.50344057 429.3125 651.6875 C428.53789076 650.38244512 427.76265077 649.07776444 426.98681641 647.7734375 C425.41561646 645.13087635 423.84723841 642.486672 422.28076172 639.84130859 C419.47594014 635.11024307 416.63632399 630.40044828 413.79711914 625.68994141 C408.79281247 617.38481364 403.84319534 609.0614515 399.0703125 600.62109375 C390.33437162 585.25132542 381.11892503 570.14432873 372 555 C372.72146225 564.61181342 373.76699923 574.17710054 374.875 583.75 C375.05538462 585.32193482 375.23572256 586.89387499 375.41601562 588.46582031 C376.38740264 596.90168697 377.41087513 605.32844628 378.5 613.75 C379.77146335 623.69360967 380.86447514 633.65521951 381.91113281 643.62463379 C382.09283053 645.35068183 382.27652877 647.07652067 382.46240234 648.80212402 C385.30913207 675.3262301 385.30913207 675.3262301 382.60107422 678.78857422 C379.25959469 681.3168483 374.97208178 680.37661964 371 680 C367.93916343 679.47862923 364.89725975 678.8918779 361.8527832 678.28320312 C346.41520781 675.25657259 330.82706425 673.69253835 315.10546875 673.37841797 C300.00455533 673.00455533 300.00455533 673.00455533 296 669 C292.44720642 668.48666533 288.8350902 668.62070069 285.25 668.625 C284.12996582 668.62371094 283.00993164 668.62242187 281.85595703 668.62109375 C269.45923733 668.76723057 257.20250091 670.14216351 244.89941406 671.57666016 C243.70715714 671.71450424 243.70715714 671.71450424 242.49081421 671.85513306 C241.00522871 672.02860274 239.52016025 672.20659245 238.03579712 672.39022827 C225.35027802 673.88995597 225.35027802 673.88995597 221.25 671.1875 C212.3984072 658.64774354 211.33561632 640.14089218 209.25 625.3125 C209.12230225 624.41684326 208.99460449 623.52118652 208.86303711 622.59838867 C208.11999046 617.01587869 207.88588689 611.63148191 208 606 C206.9483667 606.05534912 205.8967334 606.11069824 204.81323242 606.16772461 C199.93798828 606.42431641 195.06274414 606.6809082 190.1875 606.9375 C188.94069458 607.00312134 188.94069458 607.00312134 187.66870117 607.07006836 C182.64385986 607.33453369 177.61901855 607.59899902 172.59417725 607.86346436 C171.73809875 607.90852112 170.88202026 607.95357788 170 608 C169.09493713 608.04763489 168.18987427 608.09526978 167.25738525 608.14434814 C166.34696472 608.19226501 165.43654419 608.24018188 164.49853516 608.28955078 C163.61595535 608.33600235 162.73337555 608.38245392 161.8240509 608.43031311 C160.97074692 608.47522385 160.11744293 608.52013458 159.23828125 608.56640625 C156.4921875 608.7109375 153.74609375 608.85546875 151 609 C151.09087891 609.81041748 151.18175781 610.62083496 151.27539062 611.45581055 C151.61649863 614.52862511 151.95114028 617.60206367 152.28173828 620.67602539 C152.49421156 622.63415441 152.71380351 624.59150689 152.93359375 626.54882812 C156.58654806 660.73004347 156.58654806 660.73004347 150 670 C148.375 671.9375 148.375 671.9375 146 673 C139.1356971 672.77494089 132.45016182 671.13760038 125.74609375 669.71875 C117.55461425 668.14707927 109.86908538 667.92423302 101.546875 668.078125 C99.13022149 668.10536014 96.71355386 668.13136553 94.296875 668.15625 C90.50872798 668.19963326 86.72131763 668.25054312 82.93359375 668.32226562 C79.26290289 668.38869488 75.59302339 668.42358449 71.921875 668.453125 C70.7864325 668.48206848 69.65098999 668.51101196 68.48114014 668.54083252 C60.65613048 668.56757371 60.65613048 668.56757371 57.2722168 665.64038086 C55.75120833 662.48365345 55.66773226 660.78373357 56.0625 657.3125 C56.18753906 656.16652344 56.31257813 655.02054688 56.44140625 653.83984375 C57.15819091 648.91257579 58.02520678 644.01721572 58.90576172 639.11694336 C60.38980397 630.45941875 60.71815999 621.76619611 61 613 C60.68869141 614.27230469 60.68869141 614.27230469 60.37109375 615.5703125 C56.97577884 628.49808058 51.77926219 639.7540353 43 650 C42.51144531 650.62003906 42.02289062 651.24007812 41.51953125 651.87890625 C40.39866129 653.29560699 39.20656937 654.65553699 38 656 C37.34 656 36.68 656 36 656 C36 656.66 36 657.32 36 658 C9.40605972 681.25479083 -26.60319965 687.84800834 -61 686 C-96.79905201 682.74289105 -128.64567166 664.02826163 -152.24609375 637.47265625 C-161.28816541 626.53848107 -170.95968257 613.30083768 -176 600 C-176.20044922 600.5576001 -176.40089844 601.1152002 -176.60742188 601.68969727 C-188.4757772 634.43868794 -205.93417132 661.23123252 -238 677 C-265.27045703 689.2625545 -296.4560374 689.42840774 -324.4921875 679.80078125 C-327.41143391 678.65962129 -330.19321821 677.39340945 -333 676 C-334.04027344 675.49855469 -335.08054687 674.99710938 -336.15234375 674.48046875 C-344.57295494 670.20508114 -351.71429594 664.95493815 -359 659 C-359.52706543 658.57227295 -360.05413086 658.1445459 -360.59716797 657.70385742 C-385.0208651 637.68821079 -395.85882318 604.90206513 -402 575 C-402.12528076 575.61294922 -402.25056152 576.22589844 -402.37963867 576.85742188 C-404.97519284 589.44791954 -407.63987542 601.8899075 -412 614 C-412.23912109 614.67160156 -412.47824219 615.34320312 -412.72460938 616.03515625 C-418.61247042 632.23055811 -427.33747848 647.26354678 -439 660 C-439.46067871 660.51369141 -439.92135742 661.02738281 -440.39599609 661.55664062 C-454.4295055 677.05647479 -474.56301833 690.25160953 -496.03125 691.37109375 C-517.00737753 691.84266047 -532.1644819 686.84307298 -547.7265625 672.23828125 C-564.1473323 656.07144088 -575.08015793 632.69862033 -579 610 C-580.7843075 613.30683632 -581.94579104 616.67070263 -583.1015625 620.2421875 C-591.25318689 644.97854392 -600.80641921 667.11397788 -624.7578125 680.4609375 C-640.27595771 687.82738234 -658.71073237 689.09910555 -675.15234375 684.0625 C-692.75567498 677.49445323 -705.22940973 666.52697034 -713.19921875 649.43359375 C-719.38812091 635.42093217 -723.28652973 621.28231662 -725.5625 606.125 C-725.66705505 605.43726501 -725.77161011 604.74953003 -725.8793335 604.04095459 C-730.9847979 570.26122811 -732.38703231 536.09467927 -734.27685547 502.02001953 C-735.46778939 479.86662773 -735.46778939 479.86662773 -739 458 C-739.16918945 457.17773926 -739.33837891 456.35547852 -739.51269531 455.50830078 C-742.75825297 440.02227306 -747.8895378 425.33755599 -753.41748047 410.54931641 C-762.22098355 386.9688933 -762.22098355 386.9688933 -760 381 C-755.78555704 374.20251136 -749.8943469 372.19496481 -742.328125 370.34765625 C-720.51060223 366.02829119 -688.6947006 363.69108853 -669.0625 376.23828125 C-655.39942355 386.69171258 -651.49801363 407.85295234 -649.2644043 423.94433594 C-649.13352417 424.96188965 -649.13352417 424.96188965 -649 426 C-648.91081299 426.68094727 -648.82162598 427.36189453 -648.72973633 428.06347656 C-647.70902843 436.92043299 -647.54398457 445.84472945 -647.3125 454.75 C-647.28809845 455.66407623 -647.2636969 456.57815247 -647.23855591 457.51992798 C-646.77331509 476.33362065 -647.38470065 495.07322959 -648.23754883 513.86816406 C-648.72037422 524.59250019 -649.09959844 535.29461757 -649.11328125 546.03125 C-649.11553207 546.99842453 -649.1177829 547.96559906 -649.12010193 548.96208191 C-649.06812259 564.19553266 -648.47078357 581.55789339 -637 593 C-633.49926272 595.06645463 -631.08144497 595.56019833 -627 595 C-619.15537014 591.35215858 -614.88601072 583.67948723 -611.8125 575.9375 C-606.88419111 560.65836197 -606.47866096 545.79157551 -606.5625 529.875 C-606.56354736 528.76204559 -606.56459473 527.64909119 -606.56567383 526.50241089 C-606.59904718 509.21393228 -607.74902653 492.30520696 -609.83653259 475.1570282 C-609.92399246 474.43747452 -610.01145233 473.71792084 -610.1015625 472.9765625 C-610.18640396 472.28065506 -610.27124542 471.58474762 -610.35865784 470.86775208 C-611.06411308 464.88620752 -611.38406809 458.95814251 -611.375 452.9375 C-611.37628906 452.16994385 -611.37757813 451.4023877 -611.37890625 450.61157227 C-611.29806392 446.69025987 -610.98176279 443.42192581 -609 440 C-597.69389971 431.58565229 -583.31301445 432.63940052 -570 433 C-569.23606934 433.01933594 -568.47213867 433.03867188 -567.68505859 433.05859375 C-544.25257157 433.75455755 -544.25257157 433.75455755 -536.1875 439.0625 C-531.32427956 445.5931103 -534.396889 456.10475315 -535.375 463.75 C-536.76750875 475.40244709 -537.5815403 487.03439639 -538.1875 498.75 C-538.23001892 499.5478894 -538.27253784 500.34577881 -538.31634521 501.16784668 C-539.09762935 516.03329904 -539.6290248 530.60226494 -537.3125 545.375 C-537.13170898 546.54256836 -536.95091797 547.71013672 -536.76464844 548.91308594 C-533.90362886 566.54223041 -529.2030148 583.41699968 -517 597 C-512.68583306 600.00988391 -508.68145383 600.66215187 -503.51953125 600.4609375 C-496.85924053 599.24246571 -493.00922559 594.40044428 -489.3125 589.0625 C-464.10081621 546.62187513 -477.15501733 480.01239463 -488 435 C-489.62647066 428.81948076 -491.48689251 422.70215839 -493.5612793 416.6574707 C-496.26933896 408.49648446 -497.93402549 399.59331054 -494.5 391.4375 C-488.73217279 385.81386847 -481.61645068 384.16106113 -473.875 382.8125 C-472.96081299 382.64524414 -472.04662598 382.47798828 -471.10473633 382.30566406 C-463.75037386 381.01159589 -456.46855029 380.25104371 -449 380 C-449.20230225 379.3196167 -449.40460449 378.6392334 -449.61303711 377.93823242 C-450.10966152 374.16733352 -449.29294223 371.62622688 -448.19140625 367.98828125 C-447.98963272 367.3106926 -447.78785919 366.63310394 -447.57997131 365.9349823 C-446.91852141 363.72399171 -446.24087954 361.51834917 -445.5625 359.3125 C-445.10051448 357.78281916 -444.63942164 356.25286846 -444.17919922 354.72265625 C-443.01817777 350.87220895 -441.84350813 347.02606808 -440.66571045 343.1807251 C-439.66370677 339.89837528 -438.67822817 336.61116498 -437.69140625 333.32421875 C-437.00354232 331.0491953 -436.31479812 328.77443774 -435.625 326.5 C-435.3163501 325.47688721 -435.0077002 324.45377441 -434.68969727 323.3996582 C-433.24978187 318.71378552 -431.72885341 314.06523612 -430.0234375 309.46875 C-429.73130371 308.67919922 -429.43916992 307.88964844 -429.13818359 307.07617188 C-427.76707512 304.57511944 -426.45255758 303.43627579 -424 302 C-418.19842348 302.09669294 -414.30082303 304.20151016 -409.5 307.125 C-390.53566535 318.21881366 -369.16141965 327.88974609 -346.61328125 323.3125 C-340.27684385 321.54624567 -335.08206637 319.20267211 -329.8046875 315.26953125 C-328 314 -328 314 -325 313 C-323.90561753 311.13986394 -323.90561753 311.13986394 -323 309 C-322.24129854 307.80471243 -321.46987232 306.61742959 -320.6875 305.4375 C-307.54191597 284.42007657 -307.64984062 261.62152287 -312 238 C-312.33 237.01 -312.66 236.02 -313 235 C-313.42410156 235.556875 -313.84820313 236.11375 -314.28515625 236.6875 C-330.13083914 257.30430059 -351.65927897 274.46146791 -378 279 C-382.10202791 279.21782299 -386.20523046 279.18512448 -390.3125 279.1875 C-391.41529297 279.19974609 -392.51808594 279.21199219 -393.65429688 279.22460938 C-408.40585665 279.25103008 -420.15143612 274.66878914 -430.9375 264.5 C-452.30977371 242.51892089 -452.96472647 210.78673147 -453 182 C-452.02303457 143.2166196 -442.36033754 101.28840357 -424 67 C-423.58234375 66.18660156 -423.1646875 65.37320313 -422.734375 64.53515625 C-419.8932672 62.02039191 -416.64199166 61.91018827 -413 62 C-409.45703125 62.85546875 -409.45703125 62.85546875 -405.8125 64.1875 C-399.41844784 66.40085522 -393.10019576 67.84132262 -386.4375 69 C-372.30240059 71.53435876 -356.54251192 75.20584037 -345.63671875 85.15625 C-343.27639795 89.25723698 -343.22926006 92.46016326 -344 97 C-345.37325371 101.83346163 -347.01303588 106.54316601 -348.72897339 111.26422119 C-350.14679479 115.17357313 -351.51186493 119.10136208 -352.8828125 123.02734375 C-353.15522263 123.80424561 -353.42763275 124.58114746 -353.70829773 125.3815918 C-364.16083966 155.28803192 -375.41089045 190.76732865 -365 222 C-360.70740234 224.54872986 -355.83683869 224.90082063 -351 224 C-347.87478117 222.455014 -345.51243091 220.39754838 -343 218 C-342.34128906 217.38125 -341.68257812 216.7625 -341.00390625 216.125 C-327.73462009 202.46772302 -322.86087352 184.40826338 -321.17919922 165.95263672 C-321.02288462 164.24936135 -320.84349008 162.54823555 -320.66015625 160.84765625 C-320.05424049 154.79679883 -319.97158343 148.82302523 -320.01464844 142.74511719 C-320.26379538 78.32678983 -320.26379538 78.32678983 -310.4375 67.0625 C-290.33875585 53.31595153 -255.89809112 55.4842958 -232.875 57.8125 C-232.1231543 57.88251221 -231.37130859 57.95252441 -230.59667969 58.0246582 C-227.6986529 58.3618648 -225.45003097 58.69556728 -223.0078125 60.34765625 C-220.99846393 63.64205332 -222.22250732 67.43766992 -223 71 C-223.95627781 74.37007941 -224.95955528 77.72051511 -225.98364258 81.0703125 C-227.63311146 86.54368468 -229.00370532 92.03272876 -230.1875 97.625 C-230.3419458 98.33897949 -230.4963916 99.05295898 -230.65551758 99.78857422 C-233.20681626 112.19483508 -234.33855805 124.74745104 -235.0625 137.375 C-235.14548977 138.75977647 -235.22866326 140.14454195 -235.31201172 141.52929688 C-236.05031071 154.01197857 -236.58000809 166.50267982 -237 179 C-236.64808594 177.741875 -236.29617188 176.48375 -235.93359375 175.1875 C-232.7447558 164.02930767 -229.09441931 153.4307026 -224 143 C-223.65565918 142.29214355 -223.31131836 141.58428711 -222.95654297 140.85498047 C-218.17475384 131.15158382 -212.88065078 122.39711 -206 114 C-205.36191406 113.20384277 -205.36191406 113.20384277 -204.7109375 112.39160156 C-191.72991283 96.21276599 -175.15652747 81.51401221 -156 73 C-155.34 73 -154.68 73 -154 73 C-167.26079024 37.81877704 -167.26079024 37.81877704 -193 12 C-193 12.66 -193 13.32 -193 14 C-193.66 14 -194.32 14 -195 14 C-195 14.66 -195 15.32 -195 16 C-200.8544195 19.03562493 -205.36632207 20.88449039 -212 20 C-215 18.625 -215 18.625 -217 16 C-217.86026967 11.41697043 -217.95437338 7.46826674 -215.375 3.5 C-208.94701017 -0.55978305 -202.03012372 -1.00433678 -194.671875 0.46484375 C-192.34490794 1.15235675 -190.20766497 1.99402501 -188 3 C-187.29359375 3.32097656 -186.5871875 3.64195312 -185.859375 3.97265625 C-165.80064862 15.19255536 -154.3754615 46.92362409 -147 67 C-147 67.66 -147 68.32 -147 69 C-145.97003906 68.61328125 -144.94007813 68.2265625 -143.87890625 67.828125 C-116.94805605 57.89647496 -88.63978117 54.55863351 -60 55 C-59.92007813 54.20980469 -59.84015625 53.41960938 -59.7578125 52.60546875 C-58.75810754 47.84914051 -56.89213514 43.71843465 -54.875 39.3125 C-54.46685059 38.41909912 -54.05870117 37.52569824 -53.63818359 36.60522461 C-48.05600842 24.59863217 -40.80826939 14.79562702 -32 5 C-30.78763672 3.63101563 -30.78763672 3.63101563 -29.55078125 2.234375 C-22.26181348 -4.15044822 -8.34862364 -4.98748945 0 0 Z M-151.2421875 158.09765625 C-160.49093829 167.70212823 -161.79995229 178.27317819 -163 191 C-159.60413107 190.85498898 -156.20831299 190.70881477 -152.8125 190.5625 C-151.89146484 190.52318359 -150.97042969 190.48386719 -150.02148438 190.44335938 C-149.05146484 190.40146484 -148.08144531 190.35957031 -147.08203125 190.31640625 C-145.99913818 190.27 -144.91624512 190.22359375 -143.80053711 190.17578125 C-140.96948032 190.0448401 -138.1405411 189.90093255 -135.31079102 189.74609375 C-123.25198715 189.10123136 -111.22971538 188.84237717 -99.15405273 188.86962891 C-96.24783408 188.87512223 -93.34176167 188.86957019 -90.43554688 188.86328125 C-88.57812466 188.86394001 -86.72070254 188.86521694 -84.86328125 188.8671875 C-83.99890945 188.86516327 -83.13453766 188.86313904 -82.24397278 188.86105347 C-76.23008041 188.88495979 -76.23008041 188.88495979 -74 190 C-73.68937157 208.61142163 -73.61492593 227.01385259 -79 245 C-89.82321719 248.00644922 -100.69008299 248.22767145 -111.875 248.5625 C-113.25838237 248.6068456 -114.64176453 248.65119788 -116.02514648 248.69555664 C-123.70777251 248.93196853 -131.37617587 249.02836753 -139.0625 248.9375 C-146.88446382 248.84811993 -154.28981987 249.57029772 -162 251 C-161.65049983 264.78937025 -156.06832419 278.61921579 -146.75 288.8125 C-141.14016529 294.03928433 -134.01488919 297.73180118 -126.28515625 298.1953125 C-115.69193144 297.28990867 -107.42181051 289.97533463 -100.78588867 282.28271484 C-97.82784084 278.50175144 -95.55245251 274.38898386 -93.25 270.1875 C-92.3220879 268.51189013 -91.38995684 266.83860797 -90.453125 265.16796875 C-89.85226074 264.07391724 -89.85226074 264.07391724 -89.23925781 262.95776367 C-87.991896 260.9871974 -86.77002128 259.51457535 -85 258 C-69.73744857 254.90284605 -51.75905897 264.16586042 -37.94921875 269.81640625 C-35.72636784 270.72145117 -33.4967167 271.60769485 -31.265625 272.4921875 C-30.25631927 272.91538773 -30.25631927 272.91538773 -29.22662354 273.34713745 C-25.58414776 274.81077919 -25.58414776 274.81077919 -21.79589844 274.34423828 C-20.54582786 273.40855467 -19.31421056 272.44791793 -18.09790039 271.46875 C-15.56394277 269.69471427 -13.45027973 269.16646272 -10.43359375 268.5 C-9.32218018 268.2539502 -8.2107666 268.00790039 -7.06567383 267.75439453 C-5.86837646 267.50544434 -4.6710791 267.25649414 -3.4375 267 C-2.19186279 266.73944824 -0.94622559 266.47889648 0.3371582 266.21044922 C21.5165688 261.9417308 42.41910344 260.44953894 64 261 C64.05945801 261.75506836 64.11891602 262.51013672 64.18017578 263.28808594 C64.46967142 266.7780278 64.79711258 270.26346372 65.125 273.75 C65.2178125 274.93722656 65.310625 276.12445312 65.40625 277.34765625 C66.36949203 287.14061693 69.03469907 296.32086575 76.125 303.5 C83.82121343 309.22978004 93.61198362 311.13279232 103 310 C111.94753028 308.34905537 119.03340831 303.07970252 124.375 295.8125 C130.03427991 286.49596957 130.90269685 276.58212221 129 266 C125.85725953 253.62343444 118.40455841 244.4441899 107.7265625 237.52734375 C90.44002652 228.13748118 69.49698369 227.63273306 50.30639648 226.47363281 C32.15069646 225.35832619 11.95752712 223.39621114 -3 212 C-3.99 211.2575 -4.98 210.515 -6 209.75 C-16.34813161 200.79953811 -23.89537595 185.58806364 -25 172 C-25.30838596 163.66816869 -25.18994908 155.33340698 -25 147 C-25.9892749 147.433125 -25.9892749 147.433125 -26.99853516 147.875 C-27.87815918 148.24625 -28.7577832 148.6175 -29.6640625 149 C-30.5298291 149.37125 -31.3955957 149.7425 -32.28759766 150.125 C-40.63758273 152.81864055 -50.38996575 149.34421438 -58.72875977 147.59057617 C-69.72477808 145.34090499 -80.84427414 144.15173632 -92 143 C-93.1437207 142.87383301 -93.1437207 142.87383301 -94.31054688 142.74511719 C-114.44296705 140.56682387 -136.0487708 143.88360613 -151.2421875 158.09765625 Z M-241 271 C-241.09498779 271.93980713 -241.18997559 272.87961426 -241.2878418 273.84790039 C-246.82056188 327.9499989 -246.82056188 327.9499989 -260.44921875 352.125 C-261.84255691 354.70811558 -262.9751501 357.2536042 -264 360 C-263.40936768 359.93433838 -262.81873535 359.86867676 -262.21020508 359.80102539 C-255.70642128 359.1102402 -249.22146369 358.70336624 -242.6875 358.4375 C-241.67494141 358.3957666 -240.66238281 358.3540332 -239.61914062 358.31103516 C-224.99135519 357.73633865 -210.50489705 357.79273306 -196 360 C-196.72703125 359.27683594 -197.4540625 358.55367187 -198.203125 357.80859375 C-222.42514807 333.48508176 -232.73611101 304.3425644 -239 271 C-239.66 271 -240.32 271 -241 271 Z M-25 307 C-25.25579834 307.50225098 -25.51159668 308.00450195 -25.77514648 308.52197266 C-30.85692691 318.45459495 -36.09645848 328.12073534 -42.28515625 337.41015625 C-43.97423363 339.84770126 -43.97423363 339.84770126 -45 342 C-43.71867187 342.10957031 -42.43734375 342.21914063 -41.1171875 342.33203125 C-31.76971489 343.17521476 -22.7713323 344.22383934 -13.65234375 346.51171875 C-10.90808349 347.23756255 -10.90808349 347.23756255 -8 346 C-8.63615234 345.13955078 -8.63615234 345.13955078 -9.28515625 344.26171875 C-13.45232517 338.22619278 -16.295895 332.24341649 -18.8125 325.375 C-19.1019751 324.58826904 -19.3914502 323.80153809 -19.68969727 322.9909668 C-21.55652954 317.72110636 -22.87950475 312.47676217 -24 307 C-24.33 307 -24.66 307 -25 307 Z M-191 364 C-190.98952637 364.94391602 -190.97905273 365.88783203 -190.96826172 366.86035156 C-190.72366228 391.14522158 -191.01929002 415.21152836 -194.4375 439.3125 C-194.54747314 440.10076172 -194.65744629 440.88902344 -194.77075195 441.70117188 C-195.64539682 447.25501443 -196.75500259 453.01911993 -201.125 456.875 C-209.09578004 459.99400089 -215.43875682 458.6827553 -223.56640625 456.8984375 C-249.17985803 451.46331609 -286.32199294 445.23579811 -309.84765625 459.7578125 C-318.30007479 465.55960719 -324.34605536 471.93877704 -327 482 C-327.88425891 486.82323043 -328.03622499 491.36434329 -328.01953125 496.265625 C-328.01671143 497.34102539 -328.0138916 498.41642578 -328.01098633 499.52441406 C-328.00736084 500.34135742 -328.00373535 501.15830078 -328 502 C-326.7521875 501.87882812 -325.504375 501.75765625 -324.21875 501.6328125 C-308.87272365 500.23873919 -293.51856597 499.51064461 -278.125 498.875 C-276.53981567 498.80856293 -276.53981567 498.80856293 -274.92260742 498.74078369 C-271.84696366 498.61299924 -268.77119088 498.48918343 -265.6953125 498.3671875 C-264.78133698 498.32978455 -263.86736145 498.29238159 -262.9256897 498.25384521 C-258.33227523 498.07821234 -253.74070028 497.95844739 -249.14404297 497.91455078 C-247.84441116 497.90211838 -247.84441116 497.90211838 -246.51852417 497.88943481 C-243.92068615 498.00348194 -241.53247358 498.42496513 -239 499 C-238.68515345 503.74582045 -238.38260649 508.4922228 -238.09057617 513.23950195 C-237.98996794 514.84843133 -237.8862204 516.45716805 -237.77905273 518.06567383 C-235.9342712 545.85865014 -235.9342712 545.85865014 -241 554 C-245.15168636 556.18898327 -249.53155997 556.62800258 -254.13671875 557.08984375 C-254.95573166 557.17362778 -255.77474457 557.2574118 -256.61857605 557.34373474 C-268.31876642 558.43040232 -280.07127553 558.43033632 -291.8125 558.5625 C-295.33231299 558.60665147 -298.85204316 558.65335258 -302.37174988 558.70530701 C-304.54088409 558.73691402 -306.71009211 558.76390786 -308.87934875 558.78553772 C-313.68875431 558.8517872 -318.27222186 559.00131536 -323 560 C-320.5631926 575.2706597 -315.0315397 588.72625972 -303 599 C-296.70774975 603.01497936 -289.99200107 606.64859576 -282.32421875 605.65234375 C-270.95172305 602.5691338 -261.83192787 596.36013153 -255.84179688 585.99609375 C-254.21926393 583.0043013 -252.64683656 579.99423156 -251.14453125 576.94018555 C-249.21147856 573.0479698 -247.52600163 569.70373248 -244 567 C-229.21714388 565.33096786 -214.0669178 572.20449615 -200.41088867 577.11328125 C-198.09547674 577.94225881 -195.77646907 578.76049407 -193.45703125 579.578125 C-192.75085159 579.83636047 -192.04467194 580.09459595 -191.3170929 580.36065674 C-187.21476302 581.85041768 -187.21476302 581.85041768 -183 581 C-183.31453125 580.05382813 -183.6290625 579.10765625 -183.953125 578.1328125 C-200.15879374 528.43415582 -200.60513281 471.37325208 -177.125 423.8125 C-169.46861735 408.76454999 -159.38065977 396.40303582 -148 384 C-151.45082618 382.10375393 -154.99275797 381.02797341 -158.75 379.875 C-164.54983036 378.0146906 -169.99646541 375.73599677 -175.4375 373 C-176.07461914 372.68015137 -176.71173828 372.36030273 -177.36816406 372.03076172 C-182.07371333 369.60457758 -186.54689444 366.85983288 -191 364 Z M34 376 C34.43570313 376.65484375 34.87140625 377.3096875 35.3203125 377.984375 C51.96687442 403.49469067 51.96687442 403.49469067 49.8984375 414.87109375 C47.75076935 419.96013351 43.65021022 423.94025399 40 428 C39.38253906 428.73734375 38.76507812 429.4746875 38.12890625 430.234375 C34.81180327 434.18731989 31.29126368 437.56775681 27.35546875 440.89453125 C24.33311899 443.59610093 21.52472173 446.48152194 18.6875 449.375 C13.98971907 454.14294741 9.13669362 458.46240942 3.8828125 462.62109375 C0.432891 465.46798019 -2.80984513 468.49451085 -6.0625 471.5625 C-11.4969905 476.68339075 -17.05794808 481.46815856 -23 486 C-27.56814421 484.63034844 -29.29941774 482.72376716 -31.9375 478.8125 C-32.63359375 477.82507812 -33.3296875 476.83765625 -34.046875 475.8203125 C-35.1711905 474.19680091 -36.28949375 472.56901211 -37.390625 470.9296875 C-42.47427 464.10045355 -51.29922191 460.33984464 -59.5625 458.9375 C-68.2771011 458.50497384 -77.29999396 461.44169903 -84 467 C-88.2526858 471.13400619 -91.28007995 475.76586815 -94 481 C-94.49113281 481.85464844 -94.49113281 481.85464844 -94.9921875 482.7265625 C-99.82431925 491.52928314 -102.63663831 501.96805767 -103 512 C-103.03996094 513.07636719 -103.07992187 514.15273437 -103.12109375 515.26171875 C-103.4381254 533.40711858 -102.01196727 551.52284477 -97 569 C-96.70222656 570.08410156 -96.40445313 571.16820312 -96.09765625 572.28515625 C-91.41438495 587.8625608 -82.59110064 599.47114054 -68.37158203 607.38574219 C-59.07901337 612.24554832 -48.15833256 614.95121299 -37.74609375 612.4609375 C-28.68489748 609.33164391 -21.94823638 603.39969144 -17.625 594.875 C-15.22752488 588.59868302 -15.80182902 581.91790042 -16.14697266 575.31201172 C-16.40361014 568.63822095 -16.40361014 568.63822095 -14.4140625 565.4921875 C-0.04360448 556.6094772 24.87135222 555.67936562 41.3125 555.5625 C42.12364258 555.55250977 42.93478516 555.54251953 43.77050781 555.53222656 C48.32104904 555.60043596 51.47308557 556.03686743 55 559 C56.36328125 561.26171875 56.36328125 561.26171875 57.3125 563.6875 C57.63863281 564.49574219 57.96476562 565.30398438 58.30078125 566.13671875 C58.53152344 566.75160156 58.76226563 567.36648438 59 568 C59.33 568 59.66 568 60 568 C60.14323887 559.828393 59.74413846 551.85631709 58.90625 543.73046875 C58.67646005 541.37275594 58.44791145 539.01492188 58.22045898 536.65698242 C58.10193573 535.43755951 57.98341248 534.2181366 57.86129761 532.96176147 C50.11784638 452.07052657 50.11784638 452.07052657 64 416 C64.26184082 415.29842773 64.52368164 414.59685547 64.79345703 413.87402344 C68.29608067 404.54324695 72.33509689 396.24495799 78 388 C79.01088941 386.33991555 80.01401091 384.67499352 81 383 C79.09154297 382.97873047 79.09154297 382.97873047 77.14453125 382.95703125 C64.58751416 382.66814282 53.15579581 380.8050026 41.04296875 377.53515625 C38.71185382 376.92452003 36.37137312 376.42762466 34 376 Z M-410 395 C-409.88930176 395.58676514 -409.77860352 396.17353027 -409.66455078 396.77807617 C-406.35189803 414.53230925 -404.2671071 432.11944255 -403.39599609 450.15307617 C-402.9233002 459.46226992 -401.94175973 468.72869545 -401 478 C-399.62698401 475.40564467 -398.6168903 472.96971344 -397.88671875 470.12890625 C-397.69376221 469.39679932 -397.50080566 468.66469238 -397.30200195 467.91040039 C-396.99782349 466.7481897 -396.99782349 466.7481897 -396.6875 465.5625 C-391.45466737 446.36778829 -383.38040588 428.76922251 -370.93530273 413.1628418 C-368.32653138 409.88526606 -366.29537793 407.05576662 -365 403 C-366.85625 402.76216797 -366.85625 402.76216797 -368.75 402.51953125 C-382.65344392 400.66981001 -396.30468113 398.01300591 -410 395 Z M149.5625 434.265625 C133.85425657 451.7017752 134.89369066 480.11965963 136 502 C136.98142002 518.39650633 138.25055916 534.79629924 141 551 C142.01368652 550.9285376 143.02737305 550.8570752 144.07177734 550.78344727 C157.26142176 549.91900251 170.41166432 549.88384487 183.625 549.9375 C185.80729063 549.94253056 187.98958239 549.94709069 190.171875 549.95117188 C195.44794204 549.96204145 200.72396546 549.97865345 206 550 C208.61337858 514.12338024 208.47100527 464.67218358 184.4375 435.25 C179.14108404 429.84622425 174.16176314 427.36822159 166.55078125 426.90625 C159.79804424 427.15443635 154.4624758 429.68324023 149.5625 434.265625 Z M60 568 C60 569.65 60 571.3 60 573 C60.33 573 60.66 573 61 573 C61 571.35 61 569.7 61 568 C60.67 568 60.34 568 60 568 Z " fill="#982100" transform="translate(1127,667)"/>
<path d="M0 0 C2.08135307 5.29798964 3.71291613 10.45563871 5 16 C5.54527344 15.54109375 6.09054687 15.0821875 6.65234375 14.609375 C16.82224212 6.33438077 25.88804363 3.08440884 39 4 C45.91365786 5.95886973 51.5737659 10.34839515 55.546875 16.328125 C61.75377265 27.93867472 62.38526772 40.40610248 59 53 C54.79531683 63.88457605 48.52862503 70.93520953 38 76 C34.70591469 77.19376934 31.40411157 78.17432187 28 79 C36.2828162 86.07069676 47.54798371 88.653629 58 91 C59.28949315 95.50024454 58.64530988 98.96061667 57.6875 103.5 C57.42324219 104.7890625 57.15898438 106.078125 56.88671875 107.40625 C56.13906881 110.4363731 55.25458194 113.15116765 54 116 C39.51704004 117.02635149 26.75412625 111.59995613 15.71875 102.3125 C10.73865363 97.92885357 6.50779132 93.63397616 3 88 C2.98018066 88.80219971 2.96036133 89.60439941 2.93994141 90.4309082 C2.84480505 94.05844177 2.7350792 97.68539045 2.625 101.3125 C2.5940625 102.57513672 2.563125 103.83777344 2.53125 105.13867188 C2.49257812 106.34716797 2.45390625 107.55566406 2.4140625 108.80078125 C2.3826416 109.91622314 2.3512207 111.03166504 2.31884766 112.1809082 C2 115 2 115 0 118 C-6.68754115 119.37803878 -14.1949574 117.67964243 -20.875 116.6875 C-22.10561157 116.51130127 -22.10561157 116.51130127 -23.36108398 116.33154297 C-27.86037407 115.60911005 -31.22495985 114.72811606 -35 112 C-34.27417542 105.01393844 -33.25892414 98.1198019 -32.10546875 91.19335938 C-27.93995534 65.59017846 -27.08934214 37.8460111 -32.7019043 12.43310547 C-33.03427182 9.72026782 -32.6673221 7.63576053 -32 5 C-21.34529375 1.0538125 -11.35201813 -0.3566079 0 0 Z M10.25 34.8125 C5.11405704 39.80577787 3.14498304 43.95535626 2.8125 50.9375 C2.87639875 54.36886306 3.15680022 57.01577178 5 60 C8.80693169 62.53795446 12.44888454 62.0961168 16.79296875 61.4765625 C22.42197451 60.26109577 27.7552638 57.08839544 31.1640625 52.3984375 C33.42511751 48.7059232 34.90829186 45.40199051 35 41 C33.85976825 37.45928037 32.79714599 34.85408499 30.25 32.125 C22.82428413 28.41214207 16.74574723 30.53121205 10.25 34.8125 Z " fill="#992100" transform="translate(1462,839)"/>
<path d="M0 0 C0.48726562 0.47695313 0.97453125 0.95390625 1.4765625 1.4453125 C1.4765625 2.1053125 1.4765625 2.7653125 1.4765625 3.4453125 C2.04890625 3.67734375 2.62125 3.909375 3.2109375 4.1484375 C15.3967162 11.12374531 23.45439825 30.90646595 27.4765625 43.4453125 C27.86972656 44.63640625 28.26289062 45.8275 28.66796875 47.0546875 C33.73714316 64.09830661 34.06659841 85.50708338 28.4765625 102.4453125 C28.27256836 103.07791992 28.06857422 103.71052734 27.85839844 104.36230469 C20.6316506 126.37916529 7.06405148 146.08386579 -13.5234375 157.4453125 C-14.6165625 158.05246094 -15.7096875 158.65960937 -16.8359375 159.28515625 C-36.80670724 169.82776126 -61.26606356 173.26127767 -83.328125 167.48828125 C-109.62437292 158.90503162 -129.63272492 143.30360265 -142.47314453 118.61962891 C-148.48607128 106.48876091 -152.03475429 92.97971259 -152.5234375 79.4453125 C-152.56339844 78.67574219 -152.60335938 77.90617188 -152.64453125 77.11328125 C-153.30900212 53.54410852 -145.84778532 29.46177547 -130.5234375 11.4453125 C-129.8634375 10.4553125 -129.2034375 9.4653125 -128.5234375 8.4453125 C-127.8634375 8.4453125 -127.2034375 8.4453125 -126.5234375 8.4453125 C-126.19085937 7.60226562 -126.19085937 7.60226562 -125.8515625 6.7421875 C-117.79096228 -7.19790935 -97.35545427 -14.86500598 -82.66601562 -19 C-53.47452642 -26.55732264 -23.36884199 -18.27018556 0 0 Z M-113.5234375 6.4453125 C-113.5234375 7.1053125 -113.5234375 7.7653125 -113.5234375 8.4453125 C-114.1628125 8.7134375 -114.8021875 8.9815625 -115.4609375 9.2578125 C-117.85475436 10.33199002 -117.85475436 10.33199002 -118.5234375 13.4453125 C-119.5134375 13.7753125 -120.5034375 14.1053125 -121.5234375 14.4453125 C-123.22287273 16.47453324 -124.75864169 18.47222926 -126.2734375 20.6328125 C-126.71445801 21.25921631 -127.15547852 21.88562012 -127.60986328 22.53100586 C-141.07878648 42.11749341 -147.07191836 64.97560965 -143.2734375 88.5625 C-138.88990684 111.25640354 -126.58751243 132.21029385 -107.8984375 146.0703125 C-88.26465879 159.04701312 -66.64868226 165.14443191 -43.1706543 160.41308594 C-20.45878803 154.9918905 -1.13806083 140.0528301 11.1484375 120.44140625 C23.21472968 100.26652609 27.23964003 76.6024701 21.9765625 53.5078125 C18.54512841 40.18756557 12.08996762 28.10863282 3.4765625 17.4453125 C2.7134375 16.4140625 1.9503125 15.3828125 1.1640625 14.3203125 C-6.76021901 5.84317414 -16.50528859 -1.62693633 -27.2109375 -6.1796875 C-27.91226807 -6.47891113 -28.61359863 -6.77813477 -29.33618164 -7.08642578 C-58.41716232 -19.18055782 -89.0780895 -12.99985069 -113.5234375 6.4453125 Z " fill="#9A2100" transform="translate(1533.5234375,824.5546875)"/>
</svg>
